<mxfile host="app.diagrams.net" modified="2020-11-07T09:11:45.346Z" agent="5.0 (Windows NT 10.0; WOW64) AppleWebKit/537.36 (KHTML, like Gecko) Chrome/78.0.3904.108 Safari/537.36" etag="iYIHgoOp6ybICSx2x0wl" version="13.9.2" type="github">
  <diagram id="yHeF4_bzrxLTXPKwY5sZ" name="Page-1">
    <mxGraphModel dx="2203" dy="725" grid="1" gridSize="10" guides="1" tooltips="1" connect="1" arrows="1" fold="1" page="1" pageScale="1" pageWidth="827" pageHeight="1169" math="0" shadow="0">
      <root>
        <mxCell id="0" />
        <mxCell id="1" parent="0" />
        <mxCell id="8tCWAQmAQTB_diqJKxat-3" value="用户" style="shape=umlActor;verticalLabelPosition=bottom;verticalAlign=top;html=1;outlineConnect=0;" parent="1" vertex="1">
          <mxGeometry x="-800" y="320" width="50" height="90" as="geometry" />
        </mxCell>
        <mxCell id="_Clz8MUd7i8ZwyRCdDxm-4" style="rounded=0;orthogonalLoop=1;jettySize=auto;html=1;startArrow=classic;startFill=1;endArrow=none;endFill=0;" parent="1" source="8tCWAQmAQTB_diqJKxat-12" edge="1">
          <mxGeometry relative="1" as="geometry">
            <mxPoint x="-740" y="350" as="targetPoint" />
          </mxGeometry>
        </mxCell>
        <mxCell id="8tCWAQmAQTB_diqJKxat-12" value="" style="ellipse;whiteSpace=wrap;html=1;" parent="1" vertex="1">
          <mxGeometry x="-640" y="190" width="100" height="70" as="geometry" />
        </mxCell>
        <mxCell id="_Clz8MUd7i8ZwyRCdDxm-2" style="edgeStyle=orthogonalEdgeStyle;rounded=0;orthogonalLoop=1;jettySize=auto;html=1;endArrow=none;endFill=0;startArrow=classic;startFill=1;" parent="1" source="8tCWAQmAQTB_diqJKxat-13" edge="1">
          <mxGeometry relative="1" as="geometry">
            <mxPoint x="-740" y="365" as="targetPoint" />
          </mxGeometry>
        </mxCell>
        <mxCell id="8tCWAQmAQTB_diqJKxat-13" value="" style="ellipse;whiteSpace=wrap;html=1;" parent="1" vertex="1">
          <mxGeometry x="-640" y="330" width="100" height="70" as="geometry" />
        </mxCell>
        <mxCell id="_Clz8MUd7i8ZwyRCdDxm-8" style="edgeStyle=none;rounded=0;orthogonalLoop=1;jettySize=auto;html=1;entryX=1;entryY=0.5;entryDx=0;entryDy=0;startArrow=classic;startFill=1;endArrow=none;endFill=0;" parent="1" source="8tCWAQmAQTB_diqJKxat-14" target="8tCWAQmAQTB_diqJKxat-13" edge="1">
          <mxGeometry relative="1" as="geometry" />
        </mxCell>
        <mxCell id="_Clz8MUd7i8ZwyRCdDxm-20" style="edgeStyle=none;rounded=0;orthogonalLoop=1;jettySize=auto;html=1;entryX=0.5;entryY=0;entryDx=0;entryDy=0;startArrow=classic;startFill=1;endArrow=none;endFill=0;" parent="1" source="8tCWAQmAQTB_diqJKxat-14" target="abcYgRZNAxs5nldRiDmo-10" edge="1">
          <mxGeometry relative="1" as="geometry" />
        </mxCell>
        <mxCell id="8tCWAQmAQTB_diqJKxat-14" value="" style="ellipse;whiteSpace=wrap;html=1;" parent="1" vertex="1">
          <mxGeometry x="-335" y="330" width="100" height="70" as="geometry" />
        </mxCell>
        <mxCell id="_Clz8MUd7i8ZwyRCdDxm-12" style="edgeStyle=none;rounded=0;orthogonalLoop=1;jettySize=auto;html=1;entryX=1;entryY=0.5;entryDx=0;entryDy=0;startArrow=classic;startFill=1;endArrow=none;endFill=0;" parent="1" source="8tCWAQmAQTB_diqJKxat-15" target="8tCWAQmAQTB_diqJKxat-14" edge="1">
          <mxGeometry relative="1" as="geometry" />
        </mxCell>
        <mxCell id="8tCWAQmAQTB_diqJKxat-15" value="" style="ellipse;whiteSpace=wrap;html=1;" parent="1" vertex="1">
          <mxGeometry x="-40" y="190" width="100" height="70" as="geometry" />
        </mxCell>
        <mxCell id="_Clz8MUd7i8ZwyRCdDxm-32" style="edgeStyle=none;rounded=0;orthogonalLoop=1;jettySize=auto;html=1;entryX=1;entryY=0.5;entryDx=0;entryDy=0;startArrow=none;startFill=0;endArrow=classic;endFill=1;" parent="1" source="8tCWAQmAQTB_diqJKxat-16" target="8tCWAQmAQTB_diqJKxat-15" edge="1">
          <mxGeometry relative="1" as="geometry" />
        </mxCell>
        <mxCell id="_Clz8MUd7i8ZwyRCdDxm-66" style="edgeStyle=none;rounded=0;orthogonalLoop=1;jettySize=auto;html=1;entryX=0.5;entryY=1;entryDx=0;entryDy=0;startArrow=classic;startFill=1;endArrow=none;endFill=0;" parent="1" source="8tCWAQmAQTB_diqJKxat-16" target="8tCWAQmAQTB_diqJKxat-27" edge="1">
          <mxGeometry relative="1" as="geometry" />
        </mxCell>
        <mxCell id="8tCWAQmAQTB_diqJKxat-16" value="" style="ellipse;whiteSpace=wrap;html=1;" parent="1" vertex="1">
          <mxGeometry x="185" y="190" width="100" height="70" as="geometry" />
        </mxCell>
        <mxCell id="_Clz8MUd7i8ZwyRCdDxm-5" style="edgeStyle=none;rounded=0;orthogonalLoop=1;jettySize=auto;html=1;startArrow=classic;startFill=1;endArrow=none;endFill=0;entryX=1;entryY=0.5;entryDx=0;entryDy=0;" parent="1" source="8tCWAQmAQTB_diqJKxat-20" target="8tCWAQmAQTB_diqJKxat-13" edge="1">
          <mxGeometry relative="1" as="geometry">
            <mxPoint x="-546" y="350" as="targetPoint" />
          </mxGeometry>
        </mxCell>
        <mxCell id="8tCWAQmAQTB_diqJKxat-20" value="" style="ellipse;whiteSpace=wrap;html=1;" parent="1" vertex="1">
          <mxGeometry x="-330" y="30" width="100" height="70" as="geometry" />
        </mxCell>
        <mxCell id="_Clz8MUd7i8ZwyRCdDxm-28" style="edgeStyle=none;rounded=0;orthogonalLoop=1;jettySize=auto;html=1;entryX=1;entryY=0.5;entryDx=0;entryDy=0;startArrow=classic;startFill=1;endArrow=none;endFill=0;" parent="1" source="8tCWAQmAQTB_diqJKxat-21" target="8tCWAQmAQTB_diqJKxat-14" edge="1">
          <mxGeometry relative="1" as="geometry" />
        </mxCell>
        <mxCell id="_Clz8MUd7i8ZwyRCdDxm-45" style="edgeStyle=none;rounded=0;orthogonalLoop=1;jettySize=auto;html=1;entryX=0;entryY=0.5;entryDx=0;entryDy=0;startArrow=classic;startFill=1;endArrow=none;endFill=0;" parent="1" source="8tCWAQmAQTB_diqJKxat-21" target="8tCWAQmAQTB_diqJKxat-25" edge="1">
          <mxGeometry relative="1" as="geometry" />
        </mxCell>
        <mxCell id="_Clz8MUd7i8ZwyRCdDxm-46" style="edgeStyle=none;rounded=0;orthogonalLoop=1;jettySize=auto;html=1;entryX=0.01;entryY=0.4;entryDx=0;entryDy=0;entryPerimeter=0;startArrow=classic;startFill=1;endArrow=none;endFill=0;" parent="1" source="8tCWAQmAQTB_diqJKxat-21" target="_Clz8MUd7i8ZwyRCdDxm-40" edge="1">
          <mxGeometry relative="1" as="geometry" />
        </mxCell>
        <mxCell id="8tCWAQmAQTB_diqJKxat-21" value="" style="ellipse;whiteSpace=wrap;html=1;" parent="1" vertex="1">
          <mxGeometry x="-35" y="460" width="100" height="70" as="geometry" />
        </mxCell>
        <mxCell id="8tCWAQmAQTB_diqJKxat-22" value="" style="ellipse;whiteSpace=wrap;html=1;" parent="1" vertex="1">
          <mxGeometry x="-125" y="650" width="100" height="70" as="geometry" />
        </mxCell>
        <mxCell id="_Clz8MUd7i8ZwyRCdDxm-6" style="edgeStyle=none;rounded=0;orthogonalLoop=1;jettySize=auto;html=1;startArrow=classic;startFill=1;endArrow=none;endFill=0;entryX=1;entryY=0.5;entryDx=0;entryDy=0;" parent="1" source="8tCWAQmAQTB_diqJKxat-24" target="8tCWAQmAQTB_diqJKxat-13" edge="1">
          <mxGeometry relative="1" as="geometry">
            <mxPoint x="-530" y="350" as="targetPoint" />
          </mxGeometry>
        </mxCell>
        <mxCell id="8tCWAQmAQTB_diqJKxat-24" value="" style="ellipse;whiteSpace=wrap;html=1;" parent="1" vertex="1">
          <mxGeometry x="-330" y="190" width="100" height="70" as="geometry" />
        </mxCell>
        <mxCell id="8tCWAQmAQTB_diqJKxat-25" value="" style="ellipse;whiteSpace=wrap;html=1;" parent="1" vertex="1">
          <mxGeometry x="180" y="405" width="100" height="70" as="geometry" />
        </mxCell>
        <mxCell id="8tCWAQmAQTB_diqJKxat-27" value="" style="ellipse;whiteSpace=wrap;html=1;" parent="1" vertex="1">
          <mxGeometry x="185" y="65" width="100" height="70" as="geometry" />
        </mxCell>
        <mxCell id="_Clz8MUd7i8ZwyRCdDxm-23" style="edgeStyle=none;rounded=0;orthogonalLoop=1;jettySize=auto;html=1;entryX=1;entryY=0.5;entryDx=0;entryDy=0;startArrow=classic;startFill=1;endArrow=none;endFill=0;" parent="1" source="abcYgRZNAxs5nldRiDmo-10" target="8tCWAQmAQTB_diqJKxat-13" edge="1">
          <mxGeometry relative="1" as="geometry" />
        </mxCell>
        <mxCell id="abcYgRZNAxs5nldRiDmo-10" value="" style="ellipse;whiteSpace=wrap;html=1;" parent="1" vertex="1">
          <mxGeometry x="-335" y="475" width="100" height="70" as="geometry" />
        </mxCell>
        <mxCell id="d_4f9FTK0BvBkenBgBJO-8" value="&lt;font style=&quot;font-size: 15px&quot;&gt;&amp;lt;&amp;lt;include&amp;gt;&amp;gt;&lt;/font&gt;" style="text;html=1;align=center;verticalAlign=middle;resizable=0;points=[];autosize=1;" parent="1" vertex="1">
          <mxGeometry x="-435" y="235" width="100" height="20" as="geometry" />
        </mxCell>
        <mxCell id="_Clz8MUd7i8ZwyRCdDxm-14" style="edgeStyle=none;rounded=0;orthogonalLoop=1;jettySize=auto;html=1;entryX=1;entryY=0.5;entryDx=0;entryDy=0;startArrow=classic;startFill=1;endArrow=none;endFill=0;" parent="1" source="d_4f9FTK0BvBkenBgBJO-30" target="8tCWAQmAQTB_diqJKxat-14" edge="1">
          <mxGeometry relative="1" as="geometry" />
        </mxCell>
        <mxCell id="d_4f9FTK0BvBkenBgBJO-30" value="" style="ellipse;whiteSpace=wrap;html=1;" parent="1" vertex="1">
          <mxGeometry x="-35" y="330" width="100" height="70" as="geometry" />
        </mxCell>
        <mxCell id="d_4f9FTK0BvBkenBgBJO-109" value="&lt;span&gt;U1:登录&lt;/span&gt;" style="text;html=1;align=center;verticalAlign=middle;resizable=0;points=[];autosize=1;" parent="1" vertex="1">
          <mxGeometry x="-620" y="410" width="60" height="20" as="geometry" />
        </mxCell>
        <mxCell id="d_4f9FTK0BvBkenBgBJO-110" value="&lt;span&gt;U11:&lt;/span&gt;&lt;span&gt;修改评论&lt;/span&gt;" style="text;html=1;align=center;verticalAlign=middle;resizable=0;points=[];autosize=1;" parent="1" vertex="1">
          <mxGeometry x="185" y="485" width="90" height="20" as="geometry" />
        </mxCell>
        <mxCell id="d_4f9FTK0BvBkenBgBJO-111" value="&lt;span&gt;U2:&lt;/span&gt;&lt;span&gt;注册&lt;/span&gt;" style="text;html=1;align=center;verticalAlign=middle;resizable=0;points=[];autosize=1;" parent="1" vertex="1">
          <mxGeometry x="-620" y="270" width="60" height="20" as="geometry" />
        </mxCell>
        <mxCell id="d_4f9FTK0BvBkenBgBJO-112" value="&lt;span&gt;U10:查看&lt;/span&gt;&lt;span&gt;评论&lt;/span&gt;" style="text;html=1;align=center;verticalAlign=middle;resizable=0;points=[];autosize=1;" parent="1" vertex="1">
          <mxGeometry x="-25" y="540" width="90" height="20" as="geometry" />
        </mxCell>
        <mxCell id="d_4f9FTK0BvBkenBgBJO-113" value="&lt;span&gt;U9:&lt;/span&gt;&lt;span&gt;收藏商品&lt;/span&gt;" style="text;html=1;align=center;verticalAlign=middle;resizable=0;points=[];autosize=1;" parent="1" vertex="1">
          <mxGeometry x="-25" y="410" width="80" height="20" as="geometry" />
        </mxCell>
        <mxCell id="d_4f9FTK0BvBkenBgBJO-114" value="&lt;span&gt;U7:&lt;/span&gt;&lt;span&gt;购买商品&lt;/span&gt;" style="text;html=1;align=center;verticalAlign=middle;resizable=0;points=[];autosize=1;" parent="1" vertex="1">
          <mxGeometry x="200" y="265" width="80" height="20" as="geometry" />
        </mxCell>
        <mxCell id="d_4f9FTK0BvBkenBgBJO-115" value="&lt;span&gt;U3:&lt;/span&gt;&lt;span&gt;修改个人信息&lt;/span&gt;" style="text;html=1;align=center;verticalAlign=middle;resizable=0;points=[];autosize=1;" parent="1" vertex="1">
          <mxGeometry x="-325" y="115" width="110" height="20" as="geometry" />
        </mxCell>
        <mxCell id="d_4f9FTK0BvBkenBgBJO-116" value="&lt;span&gt;U4:&lt;/span&gt;&lt;span&gt;修改密码&lt;/span&gt;" style="text;html=1;align=center;verticalAlign=middle;resizable=0;points=[];autosize=1;" parent="1" vertex="1">
          <mxGeometry x="-325" y="270" width="80" height="20" as="geometry" />
        </mxCell>
        <mxCell id="d_4f9FTK0BvBkenBgBJO-117" value="&lt;span&gt;U15:&lt;/span&gt;&lt;span&gt;领取优惠券&lt;/span&gt;" style="text;html=1;align=center;verticalAlign=middle;resizable=0;points=[];autosize=1;" parent="1" vertex="1">
          <mxGeometry x="-125" y="740" width="100" height="20" as="geometry" />
        </mxCell>
        <mxCell id="d_4f9FTK0BvBkenBgBJO-118" value="&lt;span&gt;U8:&lt;/span&gt;&lt;span&gt;使用优惠券&lt;/span&gt;" style="text;html=1;align=center;verticalAlign=middle;resizable=0;points=[];autosize=1;" parent="1" vertex="1">
          <mxGeometry x="200" y="40" width="90" height="20" as="geometry" />
        </mxCell>
        <mxCell id="d_4f9FTK0BvBkenBgBJO-119" value="&lt;span&gt;U13:&lt;/span&gt;&lt;span&gt;查看话题&lt;/span&gt;" style="text;html=1;align=center;verticalAlign=middle;resizable=0;points=[];autosize=1;" parent="1" vertex="1">
          <mxGeometry x="-325" y="555" width="90" height="20" as="geometry" />
        </mxCell>
        <mxCell id="d_4f9FTK0BvBkenBgBJO-120" value="&lt;span&gt;U5:&lt;/span&gt;&lt;span&gt;浏览商品&lt;/span&gt;" style="text;html=1;align=center;verticalAlign=middle;resizable=0;points=[];autosize=1;" parent="1" vertex="1">
          <mxGeometry x="-280" y="410" width="80" height="20" as="geometry" />
        </mxCell>
        <mxCell id="d_4f9FTK0BvBkenBgBJO-121" value="&lt;span&gt;U6:&lt;/span&gt;&lt;span&gt;添加商品至购物车&lt;/span&gt;" style="text;html=1;align=center;verticalAlign=middle;resizable=0;points=[];autosize=1;" parent="1" vertex="1">
          <mxGeometry x="-50" y="265" width="130" height="20" as="geometry" />
        </mxCell>
        <mxCell id="_Clz8MUd7i8ZwyRCdDxm-9" value="&lt;font style=&quot;font-size: 15px&quot;&gt;&amp;lt;&amp;lt;include&amp;gt;&amp;gt;&lt;/font&gt;" style="text;html=1;align=center;verticalAlign=middle;resizable=0;points=[];autosize=1;" parent="1" vertex="1">
          <mxGeometry x="-470" y="145" width="100" height="20" as="geometry" />
        </mxCell>
        <mxCell id="_Clz8MUd7i8ZwyRCdDxm-11" value="&lt;font style=&quot;font-size: 15px&quot;&gt;&amp;lt;&amp;lt;include&amp;gt;&amp;gt;&lt;/font&gt;" style="text;html=1;align=center;verticalAlign=middle;resizable=0;points=[];autosize=1;" parent="1" vertex="1">
          <mxGeometry x="-450" y="340" width="100" height="20" as="geometry" />
        </mxCell>
        <mxCell id="_Clz8MUd7i8ZwyRCdDxm-13" value="&lt;font style=&quot;font-size: 15px&quot;&gt;&amp;lt;&amp;lt;include&amp;gt;&amp;gt;&lt;/font&gt;" style="text;html=1;align=center;verticalAlign=middle;resizable=0;points=[];autosize=1;" parent="1" vertex="1">
          <mxGeometry x="-170" y="260" width="100" height="20" as="geometry" />
        </mxCell>
        <mxCell id="_Clz8MUd7i8ZwyRCdDxm-15" value="&lt;font style=&quot;font-size: 15px&quot;&gt;&amp;lt;&amp;lt;include&amp;gt;&amp;gt;&lt;/font&gt;" style="text;html=1;align=center;verticalAlign=middle;resizable=0;points=[];autosize=1;" parent="1" vertex="1">
          <mxGeometry x="-165" y="340" width="100" height="20" as="geometry" />
        </mxCell>
        <mxCell id="_Clz8MUd7i8ZwyRCdDxm-21" value="&lt;font style=&quot;font-size: 15px&quot;&gt;&amp;lt;&amp;lt;extend&amp;gt;&amp;gt;&lt;/font&gt;" style="text;html=1;align=center;verticalAlign=middle;resizable=0;points=[];autosize=1;" parent="1" vertex="1">
          <mxGeometry x="-290" y="440" width="100" height="20" as="geometry" />
        </mxCell>
        <mxCell id="_Clz8MUd7i8ZwyRCdDxm-24" value="&lt;font style=&quot;font-size: 15px&quot;&gt;&amp;lt;&amp;lt;include&amp;gt;&amp;gt;&lt;/font&gt;" style="text;html=1;align=center;verticalAlign=middle;resizable=0;points=[];autosize=1;" parent="1" vertex="1">
          <mxGeometry x="-440" y="410" width="100" height="20" as="geometry" />
        </mxCell>
        <mxCell id="_Clz8MUd7i8ZwyRCdDxm-50" style="edgeStyle=none;rounded=0;orthogonalLoop=1;jettySize=auto;html=1;entryX=1;entryY=0.5;entryDx=0;entryDy=0;startArrow=classic;startFill=1;endArrow=none;endFill=0;" parent="1" source="_Clz8MUd7i8ZwyRCdDxm-25" target="8tCWAQmAQTB_diqJKxat-13" edge="1">
          <mxGeometry relative="1" as="geometry" />
        </mxCell>
        <mxCell id="_Clz8MUd7i8ZwyRCdDxm-53" style="edgeStyle=none;rounded=0;orthogonalLoop=1;jettySize=auto;html=1;entryX=0;entryY=0.5;entryDx=0;entryDy=0;startArrow=classic;startFill=1;endArrow=none;endFill=0;" parent="1" source="_Clz8MUd7i8ZwyRCdDxm-25" target="8tCWAQmAQTB_diqJKxat-22" edge="1">
          <mxGeometry relative="1" as="geometry" />
        </mxCell>
        <mxCell id="_Clz8MUd7i8ZwyRCdDxm-25" value="" style="ellipse;whiteSpace=wrap;html=1;" parent="1" vertex="1">
          <mxGeometry x="-335" y="650" width="100" height="70" as="geometry" />
        </mxCell>
        <mxCell id="_Clz8MUd7i8ZwyRCdDxm-29" value="&lt;font style=&quot;font-size: 15px&quot;&gt;&amp;lt;&amp;lt;include&amp;gt;&amp;gt;&lt;/font&gt;" style="text;html=1;align=center;verticalAlign=middle;resizable=0;points=[];autosize=1;" parent="1" vertex="1">
          <mxGeometry x="-140" y="400" width="100" height="20" as="geometry" />
        </mxCell>
        <mxCell id="_Clz8MUd7i8ZwyRCdDxm-35" value="&lt;span&gt;U14:&lt;/span&gt;&lt;span&gt;查看店铺&lt;/span&gt;" style="text;html=1;align=center;verticalAlign=middle;resizable=0;points=[];autosize=1;" parent="1" vertex="1">
          <mxGeometry x="-330" y="740" width="90" height="20" as="geometry" />
        </mxCell>
        <mxCell id="_Clz8MUd7i8ZwyRCdDxm-40" value="" style="ellipse;whiteSpace=wrap;html=1;" parent="1" vertex="1">
          <mxGeometry x="175" y="560" width="100" height="70" as="geometry" />
        </mxCell>
        <mxCell id="_Clz8MUd7i8ZwyRCdDxm-41" value="&lt;span&gt;U12:发布&lt;/span&gt;&lt;span&gt;评论&lt;/span&gt;" style="text;html=1;align=center;verticalAlign=middle;resizable=0;points=[];autosize=1;" parent="1" vertex="1">
          <mxGeometry x="185" y="640" width="90" height="20" as="geometry" />
        </mxCell>
        <mxCell id="_Clz8MUd7i8ZwyRCdDxm-47" value="&lt;font style=&quot;font-size: 15px&quot;&gt;&amp;lt;&amp;lt;extend&amp;gt;&amp;gt;&lt;/font&gt;" style="text;html=1;align=center;verticalAlign=middle;resizable=0;points=[];autosize=1;" parent="1" vertex="1">
          <mxGeometry x="65" y="430" width="100" height="20" as="geometry" />
        </mxCell>
        <mxCell id="_Clz8MUd7i8ZwyRCdDxm-48" value="&lt;font style=&quot;font-size: 15px&quot;&gt;&amp;lt;&amp;lt;extend&amp;gt;&amp;gt;&lt;/font&gt;" style="text;html=1;align=center;verticalAlign=middle;resizable=0;points=[];autosize=1;" parent="1" vertex="1">
          <mxGeometry x="85" y="520" width="100" height="20" as="geometry" />
        </mxCell>
        <mxCell id="_Clz8MUd7i8ZwyRCdDxm-51" value="&lt;font style=&quot;font-size: 15px&quot;&gt;&amp;lt;&amp;lt;include&amp;gt;&amp;gt;&lt;/font&gt;" style="text;html=1;align=center;verticalAlign=middle;resizable=0;points=[];autosize=1;" parent="1" vertex="1">
          <mxGeometry x="-440" y="500" width="100" height="20" as="geometry" />
        </mxCell>
        <mxCell id="_Clz8MUd7i8ZwyRCdDxm-54" value="&lt;font style=&quot;font-size: 15px&quot;&gt;&amp;lt;&amp;lt;extend&amp;gt;&amp;gt;&lt;/font&gt;" style="text;html=1;align=center;verticalAlign=middle;resizable=0;points=[];autosize=1;" parent="1" vertex="1">
          <mxGeometry x="-225" y="650" width="100" height="20" as="geometry" />
        </mxCell>
        <mxCell id="_Clz8MUd7i8ZwyRCdDxm-56" value="&lt;font style=&quot;font-size: 15px&quot;&gt;&amp;lt;&amp;lt;extend&amp;gt;&amp;gt;&lt;/font&gt;" style="text;html=1;align=center;verticalAlign=middle;resizable=0;points=[];autosize=1;" parent="1" vertex="1">
          <mxGeometry x="240" y="145" width="100" height="20" as="geometry" />
        </mxCell>
        <mxCell id="_Clz8MUd7i8ZwyRCdDxm-59" style="edgeStyle=none;rounded=0;orthogonalLoop=1;jettySize=auto;html=1;entryX=1;entryY=0.5;entryDx=0;entryDy=0;startArrow=classic;startFill=1;endArrow=none;endFill=0;" parent="1" source="_Clz8MUd7i8ZwyRCdDxm-57" target="8tCWAQmAQTB_diqJKxat-13" edge="1">
          <mxGeometry relative="1" as="geometry">
            <Array as="points">
              <mxPoint x="-440" y="540" />
            </Array>
          </mxGeometry>
        </mxCell>
        <mxCell id="_Clz8MUd7i8ZwyRCdDxm-63" style="edgeStyle=none;rounded=0;orthogonalLoop=1;jettySize=auto;html=1;entryX=0;entryY=0.5;entryDx=0;entryDy=0;startArrow=classic;startFill=1;endArrow=none;endFill=0;" parent="1" source="_Clz8MUd7i8ZwyRCdDxm-57" target="_Clz8MUd7i8ZwyRCdDxm-61" edge="1">
          <mxGeometry relative="1" as="geometry" />
        </mxCell>
        <mxCell id="_Clz8MUd7i8ZwyRCdDxm-57" value="" style="ellipse;whiteSpace=wrap;html=1;" parent="1" vertex="1">
          <mxGeometry x="-335" y="850" width="100" height="70" as="geometry" />
        </mxCell>
        <mxCell id="_Clz8MUd7i8ZwyRCdDxm-58" value="&lt;span&gt;U16:&lt;/span&gt;&lt;span&gt;查看活动&lt;/span&gt;" style="text;html=1;align=center;verticalAlign=middle;resizable=0;points=[];autosize=1;" parent="1" vertex="1">
          <mxGeometry x="-330" y="930" width="90" height="20" as="geometry" />
        </mxCell>
        <mxCell id="_Clz8MUd7i8ZwyRCdDxm-60" value="&lt;font style=&quot;font-size: 15px&quot;&gt;&amp;lt;&amp;lt;include&amp;gt;&amp;gt;&lt;/font&gt;" style="text;html=1;align=center;verticalAlign=middle;resizable=0;points=[];autosize=1;" parent="1" vertex="1">
          <mxGeometry x="-540" y="560" width="100" height="20" as="geometry" />
        </mxCell>
        <mxCell id="_Clz8MUd7i8ZwyRCdDxm-61" value="" style="ellipse;whiteSpace=wrap;html=1;" parent="1" vertex="1">
          <mxGeometry x="-125" y="850" width="100" height="70" as="geometry" />
        </mxCell>
        <mxCell id="_Clz8MUd7i8ZwyRCdDxm-64" value="&lt;span&gt;U17:参与&lt;/span&gt;&lt;span&gt;活动&lt;/span&gt;" style="text;html=1;align=center;verticalAlign=middle;resizable=0;points=[];autosize=1;" parent="1" vertex="1">
          <mxGeometry x="-115" y="930" width="90" height="20" as="geometry" />
        </mxCell>
        <mxCell id="_Clz8MUd7i8ZwyRCdDxm-65" value="&lt;font style=&quot;font-size: 15px&quot;&gt;&amp;lt;&amp;lt;extend&amp;gt;&amp;gt;&lt;/font&gt;" style="text;html=1;align=center;verticalAlign=middle;resizable=0;points=[];autosize=1;" parent="1" vertex="1">
          <mxGeometry x="-240" y="850" width="100" height="20" as="geometry" />
        </mxCell>
        <mxCell id="gy-DUa2f67u4gpbEkmBk-1" value="&lt;font style=&quot;font-size: 15px&quot;&gt;&amp;lt;&amp;lt;extend&amp;gt;&amp;gt;&lt;/font&gt;" style="text;html=1;align=center;verticalAlign=middle;resizable=0;points=[];autosize=1;" vertex="1" parent="1">
          <mxGeometry x="70" y="200" width="100" height="20" as="geometry" />
        </mxCell>
      </root>
    </mxGraphModel>
  </diagram>
</mxfile>
